<svg
  width="400"
  height="100"
  viewBox="0 0 400 100"
  fill="none"
  xmlns="http://www.w3.org/2000/svg"
>
  <path
    d="M60.1 34.1992C60.1 51.7992 45.8 66.1992 28.1 66.1992H28H3.29999V2.19922H28H28.1C45.8 2.19922 60.1 16.5992 60.1 34.1992Z"
    fill="#FEE500"
  />
  <path
    d="M60.8 34.1992C60.8 51.7992 75.1 66.1992 92.8 66.1992H92.9H117.6V2.19922H92.9H92.8C75.1 2.19922 60.8 16.5992 60.8 34.1992Z"
    fill="white"
  />
  <path
    d="M146.2 3.19922H160.4C171.4 3.19922 177.8 10.0992 177.8 21.0992C177.8 32.0992 171.2 38.8992 160.2 38.8992H146.2V3.19922ZM160.5 31.1992C166.5 31.1992 169.5 26.4992 169.5 20.9992C169.5 15.4992 166.5 10.8992 160.5 10.8992H154.1V31.1992H160.5Z"
    fill="white"
  />
  <path
    d="M206.8 28.1992H187.3C188.1 31.0992 190.4 33.1992 194.5 33.1992C197.3 33.1992 200.6 32.0992 202.8 30.5992L205.8 35.7992C203.2 37.6992 199.1 39.4992 194.2 39.4992C184.3 39.4992 179.7 32.7992 179.7 25.5992C179.7 17.6992 185.3 11.6992 193.7 11.6992C201.3 11.6992 207.1 16.5992 207.1 24.9992C207.1 26.0992 207 27.0992 206.8 28.1992ZM187.3 22.7992H199.8C199.1 19.7992 196.9 17.8992 193.7 17.8992C190.6 17.7992 188.2 19.6992 187.3 22.7992Z"
    fill="white"
  />
  <path d="M218.1 2.09766H210.5V38.8977H218.1V2.09766Z" fill="white" />
  <path
    d="M221.9 5.19922C221.9 2.59922 223.9 0.699219 226.4 0.699219C228.9 0.699219 230.9 2.59922 230.9 5.19922C230.9 7.79922 228.9 9.69922 226.4 9.69922C223.9 9.69922 221.9 7.79922 221.9 5.19922ZM222.6 12.3992H230.2V38.8992H222.6V12.3992Z"
    fill="white"
  />
  <path
    d="M261.1 12.3984L249.7 38.7984H243.7L232.3 12.3984H240.7L246.8 28.5984L252.8 12.3984H261.1Z"
    fill="white"
  />
  <path
    d="M288.2 28.1992H268.7C269.5 31.0992 271.8 33.1992 275.9 33.1992C278.8 33.1992 282 32.0992 284.2 30.5992L287.2 35.7992C284.6 37.6992 280.5 39.4992 275.6 39.4992C265.7 39.4992 261.1 32.7992 261.1 25.5992C261.1 17.6992 266.7 11.6992 275.1 11.6992C282.7 11.6992 288.5 16.5992 288.5 24.9992C288.4 26.0992 288.3 27.0992 288.2 28.1992ZM268.7 22.7992H281.2C280.5 19.7992 278.3 17.8992 275.1 17.8992C272 17.7992 269.6 19.6992 268.7 22.7992Z"
    fill="white"
  />
  <path
    d="M291.9 12.3977H299.1V15.7977C300.8 12.9977 303.4 11.5977 306.3 11.5977C307.3 11.5977 308.5 11.7977 309.6 12.1977L309 19.3977C307.9 18.9977 306.7 18.7977 305.7 18.7977C302.2 18.7977 299.5 20.8977 299.5 26.5977V38.6977H291.9V12.3977Z"
    fill="white"
  />
  <path
    d="M339.4 12.4008L329 39.6008C326.4 46.3008 323 50.1008 317.1 50.1008C315.1 50.1008 313.1 49.6008 311.7 48.7008L313.1 42.4008C314.1 42.9008 315.3 43.3008 316.5 43.3008C318.7 43.3008 320.3 42.0008 321.6 39.2008L321.9 38.4008L310.4 12.3008H319.1L325.5 28.7008L331.2 12.3008H339.4V12.4008Z"
    fill="white"
  />
  <path
    d="M165.4 88.5H153.4L150.9 95.7H142.6L156 60H163L176.1 95.7H167.8L165.4 88.5ZM155.6 81.5H163.3L159.5 70.2L155.6 81.5Z"
    fill="white"
  />
  <path
    d="M176.4 91.4984L180.1 86.5984C182.1 88.5984 184.8 90.0984 187.7 90.0984C189.5 90.0984 190.9 89.2984 190.9 87.9984C190.9 87.1984 190.4 86.5984 189.3 86.0984C187.9 85.4984 184.3 84.3984 182.7 83.5984C179.7 82.1984 178 79.7984 178 76.5984C178 71.7984 182.1 68.3984 188.3 68.3984C191.8 68.3984 195.1 69.3984 197.9 72.0984L194.4 76.9984C192.2 75.1984 189.9 74.4984 188.2 74.4984C186.5 74.4984 185.4 75.2984 185.4 76.3984C185.4 77.2984 186 77.9984 187.8 78.5984C189.4 79.0984 192 79.9984 194.1 80.9984C197.2 82.5984 198.6 84.6984 198.6 87.7984C198.6 92.6984 194.4 96.3984 187.7 96.3984C183.3 96.3984 179.2 94.6984 176.4 91.4984Z"
    fill="white"
  />
  <path
    d="M199.4 91.4984L203.1 86.5984C205.1 88.5984 207.8 90.0984 210.7 90.0984C212.5 90.0984 213.9 89.2984 213.9 87.9984C213.9 87.1984 213.4 86.5984 212.3 86.0984C210.9 85.4984 207.3 84.3984 205.7 83.5984C202.7 82.1984 201 79.7984 201 76.5984C201 71.7984 205.1 68.3984 211.3 68.3984C214.8 68.3984 218.1 69.3984 220.9 72.0984L217.4 76.9984C215.2 75.1984 212.9 74.4984 211.2 74.4984C209.5 74.4984 208.4 75.2984 208.4 76.3984C208.4 77.2984 209 77.9984 210.8 78.5984C212.4 79.0984 215 79.9984 217.1 80.9984C220.2 82.5984 221.6 84.6984 221.6 87.7984C221.6 92.6984 217.4 96.3984 210.7 96.3984C206.2 96.3984 202.2 94.6984 199.4 91.4984Z"
    fill="white"
  />
  <path
    d="M223 82.3984C223 74.6984 228.7 68.3984 237.2 68.3984C245.8 68.3984 251.5 74.6984 251.5 82.3984C251.5 90.0984 245.8 96.3984 237.2 96.3984C228.7 96.3984 223 90.0984 223 82.3984ZM244 82.3984C244 78.5984 241.1 75.4984 237.2 75.4984C233.4 75.4984 230.5 78.4984 230.5 82.3984C230.5 86.2984 233.4 89.3984 237.2 89.3984C241.1 89.3984 244 86.2984 244 82.3984Z"
    fill="white"
  />
  <path
    d="M253 82.4C253 74.3 258.8 68.5 267.2 68.5C272.5 68.5 277.4 71.1 279.7 76L273.7 79.2C272.3 76.9 270.1 75.4 267.4 75.4C263.4 75.4 260.6 78.4 260.6 82.3C260.6 86.3 263.5 89.2 267.3 89.2C270 89.2 272.5 87.7 273.5 85.5L279.6 89.1C277.3 93.4 272.6 96.2 267 96.2C258.8 96.3 253 90.5 253 82.4Z"
    fill="white"
  />
  <path
    d="M282.1 62C282.1 59.4 284.1 57.5 286.6 57.5C289.1 57.5 291.1 59.4 291.1 62C291.1 64.6 289.1 66.5 286.6 66.5C284 66.5 282.1 64.6 282.1 62ZM282.7 69.2H290.3V95.7H282.7V69.2Z"
    fill="white"
  />
  <path
    d="M322.1 69.2V95.7H315V93C313.1 94.9 310.5 96.4 306.8 96.4C299.2 96.4 293.8 90.2 293.8 82.3C293.8 74.4 299.4 68.5 306.8 68.5C310.4 68.5 313 70 315 72V69.2H322.1ZM315 82.4C315 78.6 312.1 75.4 308.1 75.4C304.1 75.4 301.3 78.6 301.3 82.4C301.3 86.3 304.1 89.5 308.1 89.5C312.1 89.4 315 86.2 315 82.4Z"
    fill="white"
  />
  <path
    d="M346.5 94.2008C344.4 95.6008 341.2 96.4008 338.4 96.4008C332.2 96.4008 328.9 92.8008 328.9 85.7008V75.5008H324.7V69.2008H328.9V59.8008H336.4V69.2008H344.9V75.5008H336.4V85.0008C336.4 88.0008 337.6 89.5008 339.9 89.5008C341.6 89.5008 342.9 88.9008 344.2 88.2008L346.5 94.2008Z"
    fill="white"
  />
  <path
    d="M373.5 85H354C354.8 87.9 357.1 90 361.2 90C364.1 90 367.3 88.9 369.5 87.4L372.5 92.6C369.9 94.5 365.8 96.3 360.9 96.3C351 96.3 346.4 89.6 346.4 82.4C346.4 74.5 352 68.5 360.4 68.5C368 68.5 373.8 73.4 373.8 81.8C373.7 82.9 373.6 83.9 373.5 85ZM354 79.6H366.5C365.8 76.6 363.6 74.7 360.4 74.7C357.3 74.7 354.9 76.5 354 79.6Z"
    fill="white"
  />
  <path
    d="M374.6 91.4984L378.3 86.5984C380.3 88.5984 383 90.0984 385.9 90.0984C387.7 90.0984 389.1 89.2984 389.1 87.9984C389.1 87.1984 388.6 86.5984 387.5 86.0984C386.1 85.4984 382.5 84.3984 380.9 83.5984C377.9 82.1984 376.2 79.7984 376.2 76.5984C376.2 71.7984 380.3 68.3984 386.5 68.3984C390 68.3984 393.3 69.3984 396.1 72.0984L392.6 76.9984C390.4 75.1984 388.1 74.4984 386.4 74.4984C384.7 74.4984 383.6 75.2984 383.6 76.3984C383.6 77.2984 384.2 77.9984 386 78.5984C387.6 79.0984 390.2 79.9984 392.3 80.9984C395.4 82.5984 396.8 84.6984 396.8 87.7984C396.8 92.6984 392.6 96.3984 385.9 96.3984C381.4 96.3984 377.4 94.6984 374.6 91.4984Z"
    fill="white"
  />
  <path
    d="M60.1 34.1992C60.1 51.7992 45.8 66.1992 28.1 66.1992H28H3.29999V2.19922H28H28.1C45.8 2.19922 60.1 16.5992 60.1 34.1992Z"
    fill="#FFE600"
  />
</svg>
